# Blender v2.93.1 OBJ File: 'tsx_aircraft.blend'
# www.blender.org
o Circle
v -0.000000 1.000000 3.075143
v -0.195090 0.980785 3.075143
v -0.382683 0.923880 3.075143
v -0.555570 0.831470 3.075143
v -0.707107 0.707107 3.075143
v -0.831470 0.555570 3.075143
v -0.923879 0.382683 3.075143
v -0.980785 0.195090 3.075143
v -1.000000 -0.000000 3.075143
v -0.980785 -0.195090 3.075143
v -0.923880 -0.382683 3.075143
v -0.831470 -0.555570 3.075143
v -0.707107 -0.707107 3.075143
v -0.555570 -0.831470 3.075143
v -0.382683 -0.923880 3.075143
v -0.195090 -0.980785 3.075143
v 0.000000 -1.000000 3.075143
v 0.000000 1.000000 -6.487774
v -0.195090 0.980785 -6.487774
v -0.382683 0.923880 -6.487774
v -0.555570 0.831470 -6.487774
v -0.707107 0.707107 -6.487774
v -0.831470 0.555570 -6.487774
v -0.923880 0.382683 -6.487774
v -0.980785 0.195090 -6.487774
v -1.000000 -0.000000 -6.487774
v -0.980785 -0.195090 -6.487774
v -0.923880 -0.382683 -6.487774
v -0.831470 -0.555570 -6.487774
v -0.707107 -0.707107 -6.487774
v -0.555570 -0.831470 -6.487774
v -0.382683 -0.923879 -6.487774
v -0.195090 -0.980785 -6.487774
v 0.000000 -1.000000 -6.487774
v 0.000000 0.945589 3.549318
v -0.189219 0.926952 3.549318
v -0.371167 0.871759 3.549318
v -0.538851 0.782130 3.549318
v -0.685827 0.661510 3.549318
v -0.806448 0.514534 3.549318
v -0.896077 0.346850 3.549318
v -0.951270 0.164902 3.549318
v -0.969906 -0.024318 3.549318
v -0.951270 -0.213537 3.549318
v -0.896077 -0.395485 3.549318
v -0.806448 -0.563169 3.549318
v -0.685827 -0.710145 3.549318
v -0.538851 -0.830765 3.549318
v -0.371167 -0.920394 3.549318
v -0.189219 -0.975587 3.549318
v 0.000000 -0.994224 3.549318
v -0.000000 0.827644 4.059870
v -0.173919 0.810515 4.059870
v -0.341154 0.759784 4.059870
v -0.495279 0.677403 4.059870
v -0.630370 0.566536 4.059870
v -0.741237 0.431445 4.059870
v -0.823618 0.277320 4.059870
v -0.874348 0.110085 4.059870
v -0.891478 -0.063834 4.059870
v -0.874348 -0.237752 4.059870
v -0.823618 -0.404987 4.059870
v -0.741237 -0.559112 4.059870
v -0.630370 -0.694204 4.059870
v -0.495278 -0.805070 4.059870
v -0.341154 -0.887452 4.059870
v -0.173919 -0.938182 4.059870
v 0.000000 -0.955311 4.059870
v -0.000000 -0.013724 5.217994
v -0.042392 -0.017899 5.217994
v -0.083154 -0.030264 5.217994
v -0.120721 -0.050344 5.217994
v -0.153649 -0.077368 5.217994
v -0.180672 -0.110295 5.217994
v -0.200752 -0.147862 5.217994
v -0.213118 -0.188625 5.217994
v -0.217293 -0.231017 5.217994
v -0.213118 -0.273409 5.217994
v -0.200752 -0.314171 5.217994
v -0.180672 -0.351738 5.217994
v -0.153649 -0.384666 5.217994
v -0.120721 -0.411689 5.217994
v -0.083154 -0.431769 5.217994
v -0.042392 -0.444134 5.217994
v 0.000000 -0.448310 5.217994
v -0.602445 0.267275 4.541662
v -0.512338 0.377071 4.541662
v -0.000000 0.589289 4.541662
v -0.669402 0.142009 4.541662
v -0.710633 0.006087 4.541662
v -0.724555 -0.135266 4.541662
v -0.710633 -0.276620 4.541662
v -0.669402 -0.412542 4.541662
v -0.602446 -0.537808 4.541662
v -0.512338 -0.647604 4.541662
v -0.402541 -0.737712 4.541662
v -0.277275 -0.804668 4.541662
v -0.141354 0.575366 4.541662
v -0.141354 -0.845899 4.541662
v -0.277275 0.534135 4.541662
v 0.000000 -0.859822 4.541662
v -0.402541 0.467179 4.541662
v -0.384799 0.168221 4.998376
v -0.452476 0.085757 4.998376
v -0.000000 0.327610 4.998376
v -0.502764 -0.008326 4.998376
v -0.533732 -0.110412 4.998376
v -0.544188 -0.216578 4.998376
v -0.533732 -0.322744 4.998376
v -0.502764 -0.424830 4.998376
v -0.452476 -0.518913 4.998376
v -0.384799 -0.601378 4.998376
v -0.302335 -0.669054 4.998376
v -0.208252 -0.719343 4.998376
v -0.106166 0.317154 4.998376
v -0.106166 -0.750310 4.998376
v -0.208252 0.286186 4.998376
v 0.000000 -0.760767 4.998376
v -0.302335 0.235898 4.998376
v -0.000000 -0.257727 5.283643
v 0.000000 -0.936158 -7.316965
v -0.188119 -0.917630 -7.316965
v -0.369008 -0.862758 -7.316965
v -0.535717 -0.773650 -7.316965
v -0.681838 -0.653732 -7.316965
v -0.801757 -0.507610 -7.316965
v -0.890865 -0.340902 -7.316965
v -0.945737 -0.160012 -7.316965
v -0.964265 0.028107 -7.316965
v -0.945737 0.216225 -7.316965
v -0.890865 0.397115 -7.316965
v -0.801757 0.563824 -7.316965
v -0.681838 0.709945 -7.316965
v -0.535717 0.829864 -7.316965
v -0.369008 0.918971 -7.316965
v -0.188119 0.973843 -7.316965
v 0.000000 0.992371 -7.316965
v 0.000000 -0.719141 -8.301332
v -0.166766 -0.702716 -8.301332
v -0.327123 -0.654073 -8.301332
v -0.474908 -0.575080 -8.301332
v -0.604444 -0.468772 -8.301332
v -0.710751 -0.339237 -8.301332
v -0.789744 -0.191451 -8.301332
v -0.838388 -0.031094 -8.301332
v -0.854813 0.135671 -8.301332
v -0.838388 0.302437 -8.301332
v -0.789744 0.462794 -8.301332
v -0.710751 0.610580 -8.301332
v -0.604444 0.740115 -8.301332
v -0.474908 0.846422 -8.301332
v -0.327123 0.925415 -8.301332
v -0.166766 0.974059 -8.301332
v 0.000000 0.990484 -8.301332
v 0.000000 -0.122590 -9.677197
v -0.108087 -0.111944 -9.677197
v -0.212020 -0.080416 -9.677197
v -0.307805 -0.029218 -9.677197
v -0.391761 0.039683 -9.677197
v -0.460663 0.123640 -9.677197
v -0.511861 0.219425 -9.677197
v -0.543388 0.323358 -9.677197
v -0.554034 0.431444 -9.677197
v -0.543388 0.539531 -9.677197
v -0.511861 0.643464 -9.677197
v -0.460663 0.739249 -9.677197
v -0.391761 0.823206 -9.677197
v -0.307805 0.892107 -9.677197
v -0.212020 0.943305 -9.677197
v -0.108087 0.974833 -9.677197
v 0.000000 0.985478 -9.677197
v 0.000000 0.320479 -10.432670
v -0.065784 0.326958 -10.432670
v -0.129039 0.346147 -10.432670
v -0.187336 0.377307 -10.432670
v -0.238433 0.419242 -10.432670
v -0.280368 0.470339 -10.432670
v -0.311528 0.528636 -10.432670
v -0.330717 0.591891 -10.432670
v -0.337196 0.657675 -10.432670
v -0.330717 0.723459 -10.432670
v -0.311528 0.786714 -10.432670
v -0.280368 0.845011 -10.432670
v -0.238433 0.896108 -10.432670
v -0.187336 0.938043 -10.432670
v -0.129039 0.969203 -10.432670
v -0.065784 0.988392 -10.432670
v 0.000000 0.994871 -10.432670
v 0.000000 0.818243 -11.016351
v -0.017054 0.819922 -11.016351
v -0.033452 0.824897 -11.016351
v -0.048565 0.832974 -11.016351
v -0.061811 0.843846 -11.016351
v -0.072682 0.857092 -11.016351
v -0.080760 0.872205 -11.016351
v -0.085735 0.888603 -11.016351
v -0.087414 0.905657 -11.016351
v -0.085735 0.922711 -11.016351
v -0.080760 0.939109 -11.016351
v -0.072682 0.954222 -11.016351
v -0.061811 0.967468 -11.016351
v -0.048565 0.978339 -11.016351
v -0.033452 0.986417 -11.016351
v -0.017054 0.991392 -11.016351
v 0.000000 0.993071 -11.016351
v 0.000000 0.938640 -11.049405
vt 0.000000 0.000000
vt 0.000000 0.000000
vt 0.000000 0.000000
vt 0.000000 0.000000
vt 0.000000 0.000000
vt 0.000000 0.000000
vt 0.000000 0.000000
vt 0.000000 0.000000
vt 0.000000 0.000000
vt 0.000000 0.000000
vt 0.000000 0.000000
vt 0.000000 0.000000
vt 0.000000 0.000000
vt 0.000000 0.000000
vt 0.000000 0.000000
vt 0.000000 0.000000
vt 0.000000 0.000000
vt 0.000000 0.000000
vt 0.000000 0.000000
vt 0.000000 0.000000
vt 0.000000 0.000000
vt 0.000000 0.000000
vt 0.000000 0.000000
vt 0.000000 0.000000
vt 0.000000 0.000000
vt 0.000000 0.000000
vt 0.000000 0.000000
vt 0.000000 0.000000
vt 0.000000 0.000000
vt 0.000000 0.000000
vt 0.000000 0.000000
vt 0.000000 0.000000
vt 0.000000 0.000000
vt 0.000000 0.000000
vt 0.000000 0.000000
vt 0.000000 0.000000
vt 0.000000 0.000000
vt 0.000000 0.000000
vt 0.000000 0.000000
vt 0.000000 0.000000
vt 0.000000 0.000000
vt 0.000000 0.000000
vt 0.000000 0.000000
vt 0.000000 0.000000
vt 0.000000 0.000000
vt 0.000000 0.000000
vt 0.000000 0.000000
vt 0.000000 0.000000
vt 0.000000 0.000000
vt 0.000000 0.000000
vt 0.000000 0.000000
vt 0.000000 0.000000
vt 0.000000 0.000000
vt 0.000000 0.000000
vt 0.000000 0.000000
vt 0.000000 0.000000
vt 0.000000 0.000000
vt 0.000000 0.000000
vt 0.000000 0.000000
vt 0.000000 0.000000
vt 0.000000 0.000000
vt 0.000000 0.000000
vt 0.000000 0.000000
vt 0.000000 0.000000
vt 0.000000 0.000000
vt 0.000000 0.000000
vt 0.000000 0.000000
vt 0.000000 0.000000
vt 0.000000 0.000000
vt 0.000000 0.000000
vt 0.000000 0.000000
vt 0.000000 0.000000
vt 0.000000 0.000000
vt 0.000000 0.000000
vt 0.000000 0.000000
vt 0.000000 0.000000
vt 0.000000 0.000000
vt 0.000000 0.000000
vt 0.000000 0.000000
vt 0.000000 0.000000
vt 0.000000 0.000000
vt 0.000000 0.000000
vt 0.000000 0.000000
vt 0.000000 0.000000
vt 0.000000 0.000000
vt 0.000000 0.000000
vt 0.000000 0.000000
vt 0.000000 0.000000
vt 0.000000 0.000000
vt 0.000000 0.000000
vt 0.000000 0.000000
vt 0.000000 0.000000
vt 0.000000 0.000000
vt 0.000000 0.000000
vt 0.000000 0.000000
vt 0.000000 0.000000
vt 0.000000 0.000000
vt 0.000000 0.000000
vt 0.000000 0.000000
vt 0.000000 0.000000
vt 0.000000 0.000000
vt 0.000000 0.000000
vt 0.000000 0.000000
vt 0.000000 0.000000
vt 0.000000 0.000000
vt 0.000000 0.000000
vt 0.000000 0.000000
vt 0.000000 0.000000
vt 0.000000 0.000000
vt 0.000000 0.000000
vt 0.000000 0.000000
vt 0.000000 0.000000
vt 0.000000 0.000000
vt 0.000000 0.000000
vt 0.000000 0.000000
vt 0.000000 0.000000
vt 0.000000 0.000000
vt 0.000000 0.000000
vt 0.000000 0.000000
vt 0.000000 0.000000
vt 0.000000 0.000000
vt 0.000000 0.000000
vt 0.000000 0.000000
vt 0.000000 0.000000
vt 0.000000 0.000000
vt 0.000000 0.000000
vt 0.000000 0.000000
vt 0.000000 0.000000
vt 0.000000 0.000000
vt 0.000000 0.000000
vt 0.000000 0.000000
vt 0.000000 0.000000
vt 0.000000 0.000000
vt 0.000000 0.000000
vt 0.000000 0.000000
vt 0.000000 0.000000
vt 0.000000 0.000000
vt 0.000000 0.000000
vt 0.000000 0.000000
vt 0.000000 0.000000
vt 0.000000 0.000000
vt 0.000000 0.000000
vt 0.000000 0.000000
vt 0.000000 0.000000
vt 0.000000 0.000000
vt 0.000000 0.000000
vt 0.000000 0.000000
vt 0.000000 0.000000
vt 0.000000 0.000000
vt 0.000000 0.000000
vt 0.000000 0.000000
vt 0.000000 0.000000
vt 0.000000 0.000000
vt 0.000000 0.000000
vt 0.000000 0.000000
vt 0.000000 0.000000
vt 0.000000 0.000000
vt 0.000000 0.000000
vt 0.000000 0.000000
vt 0.000000 0.000000
vt 0.000000 0.000000
vt 0.000000 0.000000
vt 0.000000 0.000000
vt 0.000000 0.000000
vt 0.000000 0.000000
vt 0.000000 0.000000
vt 0.000000 0.000000
vt 0.000000 0.000000
vt 0.000000 0.000000
vt 0.000000 0.000000
vt 0.000000 0.000000
vt 0.000000 0.000000
vt 0.000000 0.000000
vt 0.000000 0.000000
vt 0.000000 0.000000
vt 0.000000 0.000000
vt 0.000000 0.000000
vt 0.000000 0.000000
vt 0.000000 0.000000
vt 0.000000 0.000000
vt 0.000000 0.000000
vt 0.000000 0.000000
vt 0.000000 0.000000
vt 0.000000 0.000000
vt 0.000000 0.000000
vt 0.000000 0.000000
vt 0.000000 0.000000
vt 0.000000 0.000000
vt 0.000000 0.000000
vt 0.000000 0.000000
vt 0.000000 0.000000
vt 0.000000 0.000000
vt 0.000000 0.000000
vt 0.000000 0.000000
vt 0.000000 0.000000
vt 0.000000 0.000000
vt 0.000000 0.000000
vt 0.000000 0.000000
vt 0.000000 0.000000
vt 0.000000 0.000000
vt 0.000000 0.000000
vt 0.000000 0.000000
vt 0.000000 0.000000
vt 0.000000 0.000000
vt 0.000000 0.000000
vt 0.000000 0.000000
vn 0.9807 0.1935 -0.0267
vn 0.9242 0.3812 -0.0219
vn 0.9231 0.3834 0.0280
vn 0.9803 0.1960 0.0248
vn 0.8321 0.5544 -0.0175
vn 0.8306 0.5560 0.0309
vn 0.7078 0.7062 -0.0136
vn 0.7062 0.7072 0.0334
vn 0.5563 0.8309 -0.0104
vn 0.5547 0.8313 0.0355
vn 0.3832 0.9236 -0.0080
vn 0.3820 0.9234 0.0370
vn 0.0978 -0.9936 -0.0566
vn 0.1945 -0.9793 -0.0564
vn 0.1953 -0.9807 0.0049
vn 0.0980 -0.9951 0.0045
vn 0.1954 0.9807 -0.0066
vn 0.1947 0.9801 0.0380
vn 0.3815 -0.9227 -0.0550
vn 0.3830 -0.9237 0.0059
vn 0.0980 0.9951 -0.0060
vn 0.0979 0.9944 0.0381
vn 0.5541 -0.8308 -0.0527
vn 0.5560 -0.8311 0.0074
vn 0.7054 -0.7070 -0.0496
vn 0.7076 -0.7065 0.0096
vn 0.8299 -0.5560 -0.0457
vn 0.8319 -0.5548 0.0121
vn 0.9225 -0.3837 -0.0414
vn 0.9241 -0.3817 0.0150
vn 0.9798 -0.1964 -0.0367
vn 0.9808 -0.1940 0.0182
vn 0.9995 -0.0016 -0.0317
vn 0.9998 0.0010 0.0215
vn 0.9764 0.1935 -0.0952
vn 0.9209 0.3807 -0.0833
vn 0.8296 0.5536 -0.0724
vn 0.7061 0.7053 -0.0627
vn 0.5551 0.8300 -0.0548
vn 0.3825 0.9226 -0.0489
vn 0.0966 -0.9810 -0.1684
vn 0.1922 -0.9669 -0.1680
vn 0.1950 0.9797 -0.0452
vn 0.3772 -0.9113 -0.1646
vn 0.0979 0.9942 -0.0438
vn 0.5482 -0.8211 -0.1590
vn 0.6986 -0.6993 -0.1513
vn 0.8227 -0.5504 -0.1420
vn 0.9156 -0.3799 -0.1314
vn 0.9736 -0.1943 -0.1197
vn 0.9942 -0.0007 -0.1075
vn 0.9471 -0.1898 -0.2589
vn 0.9709 -0.0015 -0.2396
vn 0.9571 0.1888 -0.2199
vn 0.9057 0.3735 -0.2007
vn 0.8183 0.5450 -0.1826
vn 0.6981 0.6963 -0.1665
vn 0.5499 0.8211 -0.1532
vn 0.3794 0.9141 -0.1432
vn 0.0924 -0.9384 -0.3328
vn 0.1838 -0.9250 -0.3325
vn 0.1936 0.9714 -0.1370
vn 0.3612 -0.8731 -0.3274
vn 0.0971 0.9861 -0.1343
vn 0.5260 -0.7884 -0.3190
vn 0.6722 -0.6734 -0.3077
vn 0.7942 -0.5320 -0.2935
vn 0.8872 -0.3688 -0.2771
vn 0.6308 -0.4170 -0.6543
vn 0.5310 -0.5267 -0.6638
vn 0.2965 -0.2966 -0.9077
vn 0.3515 -0.2350 -0.9062
vn 0.7089 -0.2891 -0.6432
vn 0.3941 -0.1634 -0.9044
vn 0.7619 -0.1469 -0.6308
vn 0.4227 -0.0842 -0.9023
vn 0.7866 0.0047 -0.6174
vn 0.4356 -0.0002 -0.9001
vn 0.7810 0.1602 -0.6036
vn 0.4320 0.0857 -0.8978
vn 0.7442 0.3132 -0.5900
vn 0.4113 0.1701 -0.8954
vn 0.6767 0.4572 -0.5771
vn 0.3739 0.2495 -0.8932
vn 0.5806 0.5857 -0.5656
vn 0.3209 0.3206 -0.8912
vn 0.4594 0.6927 -0.5559
vn 0.2541 0.3799 -0.8894
vn 0.3180 0.7731 -0.5487
vn 0.1760 0.4245 -0.8881
vn 0.1438 -0.7187 -0.6803
vn 0.0719 -0.7300 -0.6796
vn 0.0407 -0.4129 -0.9098
vn 0.0807 -0.4057 -0.9104
vn 0.1626 0.8230 -0.5442
vn 0.0900 0.4523 -0.8873
vn 0.2832 -0.6794 -0.6769
vn 0.1587 -0.3833 -0.9099
vn 0.0824 0.8371 -0.5408
vn 0.0454 0.4612 -0.8861
vn 0.4137 -0.6149 -0.6714
vn 0.2315 -0.3466 -0.9090
vn 0.4960 -0.7422 -0.4506
vn 0.6363 -0.6363 -0.4361
vn 0.3396 -0.8197 -0.4612
vn 0.1910 0.9597 -0.2060
vn 0.0960 0.9746 -0.2021
vn 0.1725 -0.8669 -0.4675
vn 0.3739 0.9022 -0.2147
vn 0.0866 -0.8795 -0.4679
vn 0.5411 0.8093 -0.2287
vn 0.6854 0.6849 -0.2472
vn 0.8009 0.5347 -0.2695
vn 0.8831 0.3655 -0.2943
vn 0.9290 0.1845 -0.3206
vn 0.9378 -0.0002 -0.3471
vn 0.9100 -0.1811 -0.3728
vn 0.8480 -0.3513 -0.3967
vn 0.7553 -0.5047 -0.4180
vn 0.1910 0.0340 -0.9810
vn 0.5495 0.8245 0.1344
vn 0.7004 0.7025 0.1259
vn 0.3781 0.9150 0.1406
vn 0.1955 -0.9807 0.0069
vn 0.0980 -0.9951 0.0055
vn 0.1926 0.9705 0.1444
vn 0.3835 -0.9235 0.0110
vn 0.0970 0.9846 0.1451
vn 0.5565 -0.8306 0.0177
vn 0.7080 -0.7057 0.0266
vn 0.8319 -0.5536 0.0375
vn 0.9235 -0.3802 0.0499
vn 0.9792 -0.1925 0.0632
vn 0.9970 0.0022 0.0770
vn 0.9763 0.1964 0.0906
vn 0.9181 0.3825 0.1037
vn 0.8249 0.5533 0.1156
vn 0.9867 0.0027 0.1626
vn 0.9727 -0.1906 0.1324
vn 0.9200 -0.3781 0.1028
vn 0.8305 -0.5519 0.0751
vn 0.7078 -0.7046 0.0506
vn 0.5568 -0.8301 0.0304
vn 0.0933 0.9478 0.3049
vn 0.1855 0.9345 0.3037
vn 0.3838 -0.9233 0.0153
vn 0.1957 -0.9806 0.0059
vn 0.3648 0.8827 0.2960
vn 0.0980 -0.9952 0.0027
vn 0.5318 0.7980 0.2835
vn 0.6805 0.6826 0.2663
vn 0.8050 0.5402 0.2449
vn 0.9004 0.3754 0.2200
vn 0.9620 0.1939 0.1922
vn 0.8274 -0.5507 0.1100
vn 0.7065 -0.7041 0.0714
vn 0.5563 -0.8300 0.0393
vn 0.3835 -0.9234 0.0154
vn 0.0876 0.8890 0.4494
vn 0.1744 0.8770 0.4477
vn 0.1956 -0.9807 0.0006
vn 0.3439 0.8309 0.4374
vn 0.0980 -0.9951 -0.0044
vn 0.5038 0.7546 0.4203
vn 0.6488 0.6495 0.3966
vn 0.7732 0.5175 0.3664
vn 0.8716 0.3621 0.3305
vn 0.9385 0.1880 0.2897
vn 0.9694 0.0015 0.2453
vn 0.9615 -0.1895 0.1991
vn 0.9136 -0.3764 0.1533
vn 0.3839 -0.9231 0.0233
vn 0.1958 -0.9806 0.0024
vn 0.1599 0.8035 0.5734
vn 0.3166 0.7639 0.5623
vn 0.0980 -0.9951 -0.0046
vn 0.4664 0.6977 0.5437
vn 0.6052 0.6051 0.5173
vn 0.7280 0.4865 0.4829
vn 0.8292 0.3439 0.4407
vn 0.9025 0.1803 0.3911
vn 0.9421 0.0013 0.3354
vn 0.9431 -0.1858 0.2756
vn 0.9032 -0.3718 0.2145
vn 0.8226 -0.5469 0.1554
vn 0.7050 -0.7018 0.1019
vn 0.5563 -0.8290 0.0570
vn 0.0802 0.8141 0.5752
vn 0.3285 -0.8006 0.5011
vn 0.1693 -0.8581 0.4847
vn 0.1090 0.5411 0.8338
vn 0.2168 0.5163 0.8285
vn 0.0861 -0.8745 0.4773
vn 0.3218 0.4743 0.8194
vn 0.4221 0.4145 0.8062
vn 0.5148 0.3360 0.7887
vn 0.5963 0.2387 0.7664
vn 0.6620 0.1230 0.7393
vn 0.7064 -0.0090 0.7077
vn 0.7243 -0.1532 0.6723
vn 0.7109 -0.3037 0.6343
vn 0.6636 -0.4524 0.5958
vn 0.5820 -0.5906 0.5590
vn 0.4686 -0.7093 0.5266
vn 0.0540 0.5485 0.8343
vn 0.2463 -0.1350 0.9597
s 1
f 10/1/1 11/2/2 28/3/3 27/4/4
f 11/2/2 12/5/5 29/6/6 28/3/3
f 12/5/5 13/7/7 30/8/8 29/6/6
f 13/7/7 14/9/9 31/10/10 30/8/8
f 14/9/9 15/11/11 32/12/12 31/10/10
f 1/13/13 2/14/14 19/15/15 18/16/16
f 15/11/11 16/17/17 33/18/18 32/12/12
f 2/14/14 3/19/19 20/20/20 19/15/15
f 16/17/17 17/21/21 34/22/22 33/18/18
f 3/19/19 4/23/23 21/24/24 20/20/20
f 4/23/23 5/25/25 22/26/26 21/24/24
f 5/25/25 6/27/27 23/28/28 22/26/26
f 6/27/27 7/29/29 24/30/30 23/28/28
f 7/29/29 8/31/31 25/32/32 24/30/30
f 8/31/31 9/33/33 26/34/34 25/32/32
f 9/33/33 10/1/1 27/4/4 26/34/34
f 11/2/2 10/1/1 44/35/35 45/36/36
f 12/5/5 11/2/2 45/36/36 46/37/37
f 13/7/7 12/5/5 46/37/37 47/38/38
f 14/9/9 13/7/7 47/38/38 48/39/39
f 15/11/11 14/9/9 48/39/39 49/40/40
f 2/14/14 1/13/13 35/41/41 36/42/42
f 16/17/17 15/11/11 49/40/40 50/43/43
f 3/19/19 2/14/14 36/42/42 37/44/44
f 17/21/21 16/17/17 50/43/43 51/45/45
f 4/23/23 3/19/19 37/44/44 38/46/46
f 5/25/25 4/23/23 38/46/46 39/47/47
f 6/27/27 5/25/25 39/47/47 40/48/48
f 7/29/29 6/27/27 40/48/48 41/49/49
f 8/31/31 7/29/29 41/49/49 42/50/50
f 9/33/33 8/31/31 42/50/50 43/51/51
f 10/1/1 9/33/33 43/51/51 44/35/35
f 43/51/51 42/50/50 59/52/52 60/53/53
f 44/35/35 43/51/51 60/53/53 61/54/54
f 45/36/36 44/35/35 61/54/54 62/55/55
f 46/37/37 45/36/36 62/55/55 63/56/56
f 47/38/38 46/37/37 63/56/56 64/57/57
f 48/39/39 47/38/38 64/57/57 65/58/58
f 49/40/40 48/39/39 65/58/58 66/59/59
f 36/42/42 35/41/41 52/60/60 53/61/61
f 50/43/43 49/40/40 66/59/59 67/62/62
f 37/44/44 36/42/42 53/61/61 54/63/63
f 51/45/45 50/43/43 67/62/62 68/64/64
f 38/46/46 37/44/44 54/63/63 55/65/65
f 39/47/47 38/46/46 55/65/65 56/66/66
f 40/48/48 39/47/47 56/66/66 57/67/67
f 41/49/49 40/48/48 57/67/67 58/68/68
f 42/50/50 41/49/49 58/68/68 59/52/52
f 104/69/69 103/70/70 73/71/71 74/72/72
f 106/73/73 104/69/69 74/72/72 75/74/74
f 107/75/75 106/73/73 75/74/74 76/76/76
f 108/77/77 107/75/75 76/76/76 77/78/78
f 109/79/79 108/77/77 77/78/78 78/80/80
f 110/81/81 109/79/79 78/80/80 79/82/82
f 111/83/83 110/81/81 79/82/82 80/84/84
f 112/85/85 111/83/83 80/84/84 81/86/86
f 113/87/87 112/85/85 81/86/86 82/88/88
f 114/89/89 113/87/87 82/88/88 83/90/90
f 115/91/91 105/92/92 69/93/93 70/94/94
f 116/95/95 114/89/89 83/90/90 84/96/96
f 117/97/97 115/91/91 70/94/94 71/98/98
f 118/99/99 116/95/95 84/96/96 85/100/100
f 119/101/101 117/97/97 71/98/98 72/102/102
f 103/70/70 119/101/101 72/102/102 73/71/71
f 56/66/66 55/65/65 102/103/103 87/104/104
f 55/65/65 54/63/63 100/105/105 102/103/103
f 68/64/64 67/62/62 99/106/106 101/107/107
f 54/63/63 53/61/61 98/108/108 100/105/105
f 67/62/62 66/59/59 97/109/109 99/106/106
f 53/61/61 52/60/60 88/110/110 98/108/108
f 66/59/59 65/58/58 96/111/111 97/109/109
f 65/58/58 64/57/57 95/112/112 96/111/111
f 64/57/57 63/56/56 94/113/113 95/112/112
f 63/56/56 62/55/55 93/114/114 94/113/113
f 62/55/55 61/54/54 92/115/115 93/114/114
f 61/54/54 60/53/53 91/116/116 92/115/115
f 60/53/53 59/52/52 90/117/117 91/116/116
f 59/52/52 58/68/68 89/118/118 90/117/117
f 58/68/68 57/67/67 86/119/119 89/118/118
f 57/67/67 56/66/66 87/104/104 86/119/119
f 87/104/104 102/103/103 119/101/101 103/70/70
f 102/103/103 100/105/105 117/97/97 119/101/101
f 101/107/107 99/106/106 116/95/95 118/99/99
f 100/105/105 98/108/108 115/91/91 117/97/97
f 99/106/106 97/109/109 114/89/89 116/95/95
f 98/108/108 88/110/110 105/92/92 115/91/91
f 97/109/109 96/111/111 113/87/87 114/89/89
f 96/111/111 95/112/112 112/85/85 113/87/87
f 95/112/112 94/113/113 111/83/83 112/85/85
f 94/113/113 93/114/114 110/81/81 111/83/83
f 93/114/114 92/115/115 109/79/79 110/81/81
f 92/115/115 91/116/116 108/77/77 109/79/79
f 91/116/116 90/117/117 107/75/75 108/77/77
f 90/117/117 89/118/118 106/73/73 107/75/75
f 89/118/118 86/119/119 104/69/69 106/73/73
f 86/119/119 87/104/104 103/70/70 104/69/69
f 77/78/78 76/76/76 120/120/120
f 78/80/80 77/78/78 120/120/120
f 79/82/82 78/80/80 120/120/120
f 80/84/84 79/82/82 120/120/120
f 81/86/86 80/84/84 120/120/120
f 82/88/88 81/86/86 120/120/120
f 83/90/90 82/88/88 120/120/120
f 70/94/94 69/93/93 120/120/120
f 84/96/96 83/90/90 120/120/120
f 71/98/98 70/94/94 120/120/120
f 85/100/100 84/96/96 120/120/120
f 72/102/102 71/98/98 120/120/120
f 73/71/71 72/102/102 120/120/120
f 74/72/72 73/71/71 120/120/120
f 75/74/74 74/72/72 120/120/120
f 76/76/76 75/74/74 120/120/120
f 30/8/8 31/10/10 124/121/121 125/122/122
f 31/10/10 32/12/12 123/123/123 124/121/121
f 18/16/16 19/15/15 136/124/124 137/125/125
f 32/12/12 33/18/18 122/126/126 123/123/123
f 19/15/15 20/20/20 135/127/127 136/124/124
f 33/18/18 34/22/22 121/128/128 122/126/126
f 20/20/20 21/24/24 134/129/129 135/127/127
f 21/24/24 22/26/26 133/130/130 134/129/129
f 22/26/26 23/28/28 132/131/131 133/130/130
f 23/28/28 24/30/30 131/132/132 132/131/131
f 24/30/30 25/32/32 130/133/133 131/132/132
f 25/32/32 26/34/34 129/134/134 130/133/133
f 26/34/34 27/4/4 128/135/135 129/134/134
f 27/4/4 28/3/3 127/136/136 128/135/135
f 28/3/3 29/6/6 126/137/137 127/136/136
f 29/6/6 30/8/8 125/122/122 126/137/137
f 130/133/133 129/134/134 146/138/138 147/139/139
f 131/132/132 130/133/133 147/139/139 148/140/140
f 132/131/131 131/132/132 148/140/140 149/141/141
f 133/130/130 132/131/131 149/141/141 150/142/142
f 134/129/129 133/130/130 150/142/142 151/143/143
f 122/126/126 121/128/128 138/144/144 139/145/145
f 135/127/127 134/129/129 151/143/143 152/146/146
f 136/124/124 135/127/127 152/146/146 153/147/147
f 123/123/123 122/126/126 139/145/145 140/148/148
f 137/125/125 136/124/124 153/147/147 154/149/149
f 124/121/121 123/123/123 140/148/148 141/150/150
f 125/122/122 124/121/121 141/150/150 142/151/151
f 126/137/137 125/122/122 142/151/151 143/152/152
f 127/136/136 126/137/137 143/152/152 144/153/153
f 128/135/135 127/136/136 144/153/153 145/154/154
f 129/134/134 128/135/135 145/154/154 146/138/138
f 150/142/142 149/141/141 166/155/155 167/156/156
f 151/143/143 150/142/142 167/156/156 168/157/157
f 152/146/146 151/143/143 168/157/157 169/158/158
f 139/145/145 138/144/144 155/159/159 156/160/160
f 153/147/147 152/146/146 169/158/158 170/161/161
f 140/148/148 139/145/145 156/160/160 157/162/162
f 154/149/149 153/147/147 170/161/161 171/163/163
f 141/150/150 140/148/148 157/162/162 158/164/164
f 142/151/151 141/150/150 158/164/164 159/165/165
f 143/152/152 142/151/151 159/165/165 160/166/166
f 144/153/153 143/152/152 160/166/166 161/167/167
f 145/154/154 144/153/153 161/167/167 162/168/168
f 146/138/138 145/154/154 162/168/168 163/169/169
f 147/139/139 146/138/138 163/169/169 164/170/170
f 148/140/140 147/139/139 164/170/170 165/171/171
f 149/141/141 148/140/140 165/171/171 166/155/155
f 170/161/161 169/158/158 186/172/172 187/173/173
f 157/162/162 156/160/160 173/174/174 174/175/175
f 171/163/163 170/161/161 187/173/173 188/176/176
f 158/164/164 157/162/162 174/175/175 175/177/177
f 159/165/165 158/164/164 175/177/177 176/178/178
f 160/166/166 159/165/165 176/178/178 177/179/179
f 161/167/167 160/166/166 177/179/179 178/180/180
f 162/168/168 161/167/167 178/180/180 179/181/181
f 163/169/169 162/168/168 179/181/181 180/182/182
f 164/170/170 163/169/169 180/182/182 181/183/183
f 165/171/171 164/170/170 181/183/183 182/184/184
f 166/155/155 165/171/171 182/184/184 183/185/185
f 167/156/156 166/155/155 183/185/185 184/186/186
f 168/157/157 167/156/156 184/186/186 185/187/187
f 169/158/158 168/157/157 185/187/187 186/172/172
f 156/160/160 155/159/159 172/188/188 173/174/174
f 187/173/173 186/172/172 203/189/189 204/190/190
f 174/175/175 173/174/174 190/191/191 191/192/192
f 188/176/176 187/173/173 204/190/190 205/193/193
f 175/177/177 174/175/175 191/192/192 192/194/194
f 176/178/178 175/177/177 192/194/194 193/195/195
f 177/179/179 176/178/178 193/195/195 194/196/196
f 178/180/180 177/179/179 194/196/196 195/197/197
f 179/181/181 178/180/180 195/197/197 196/198/198
f 180/182/182 179/181/181 196/198/198 197/199/199
f 181/183/183 180/182/182 197/199/199 198/200/200
f 182/184/184 181/183/183 198/200/200 199/201/201
f 183/185/185 182/184/184 199/201/201 200/202/202
f 184/186/186 183/185/185 200/202/202 201/203/203
f 185/187/187 184/186/186 201/203/203 202/204/204
f 186/172/172 185/187/187 202/204/204 203/189/189
f 173/174/174 172/188/188 189/205/205 190/191/191
f 194/196/196 193/195/195 206/206/206
f 195/197/197 194/196/196 206/206/206
f 196/198/198 195/197/197 206/206/206
f 197/199/199 196/198/198 206/206/206
f 198/200/200 197/199/199 206/206/206
f 199/201/201 198/200/200 206/206/206
f 200/202/202 199/201/201 206/206/206
f 201/203/203 200/202/202 206/206/206
f 202/204/204 201/203/203 206/206/206
f 203/189/189 202/204/204 206/206/206
f 190/191/191 189/205/205 206/206/206
f 204/190/190 203/189/189 206/206/206
f 191/192/192 190/191/191 206/206/206
f 205/193/193 204/190/190 206/206/206
f 192/194/194 191/192/192 206/206/206
f 193/195/195 192/194/194 206/206/206
