# Blender v2.93.1 OBJ File: 'tsx_aircraft.blend'
# www.blender.org
mtllib aircraft_engine.mtl
o Polygon.001
v -0.064688 0.461391 -0.964939
v -0.082043 0.486609 -1.411383
v -0.064179 0.460652 -1.879165
v 0.001362 0.365416 -2.448023
v 0.106935 0.212011 -2.970402
v 0.123709 0.187637 -2.949693
v -0.004175 0.373462 -1.771658
v -0.007113 0.377730 -1.056289
v 0.018936 0.339879 -0.611162
v -0.002703 0.371322 -0.574817
v -0.026041 0.405235 -0.610578
v 0.670937 0.459905 -0.964939
v 0.694721 0.484724 -1.411383
v 0.670240 0.459177 -1.879165
v 0.580418 0.365448 -2.448023
v 0.435734 0.214468 -2.970402
v 0.412745 0.190479 -2.949693
v 0.588006 0.373366 -1.771658
v 0.592032 0.377567 -1.056289
v 0.556333 0.340314 -0.611162
v 0.585989 0.371260 -0.574817
v 0.617973 0.404636 -0.610578
v 0.671326 -0.000248 -0.964939
v 0.694985 -0.000248 -1.411383
v 0.670632 -0.000248 -1.879165
v 0.581286 -0.000248 -2.448023
v 0.437365 -0.000248 -2.970402
v 0.414498 -0.000248 -2.949693
v 0.588834 -0.000248 -1.771658
v 0.592838 -0.000248 -1.056289
v 0.557328 -0.000248 -0.611162
v 0.586827 -0.000248 -0.574817
v 0.618642 -0.000248 -0.610578
v -0.065258 0.000432 -0.964939
v -0.082613 0.000432 -1.411383
v -0.064750 0.000432 -1.879165
v 0.000791 0.000432 -2.448023
v 0.106364 0.000432 -2.970402
v 0.123138 0.000432 -2.949693
v -0.004746 0.000432 -1.771658
v -0.007683 0.000432 -1.056289
v 0.018365 0.000432 -0.611162
v -0.003274 0.000432 -0.574817
v -0.026612 0.000432 -0.610578
vt 1.000000 0.000000
vt 0.000000 0.000000
vt 0.000000 0.000000
vt 1.000000 0.000000
vt 0.800000 0.000000
vt 0.900000 0.000000
vt 0.900000 0.000000
vt 0.800000 0.000000
vt 0.100000 0.000000
vt 0.100000 0.000000
vt 0.500000 0.000000
vt 0.600000 0.000000
vt 0.600000 0.000000
vt 0.500000 0.000000
vt 0.700000 0.000000
vt 0.700000 0.000000
vt 0.200000 0.000000
vt 0.200000 0.000000
vt 0.300000 0.000000
vt 0.400000 0.000000
vt 0.400000 0.000000
vt 0.300000 0.000000
vt 0.000000 0.000000
vt 1.000000 0.000000
vt 1.000000 0.000000
vt 0.000000 0.000000
vt 0.900000 0.000000
vt 0.800000 0.000000
vt 0.800000 0.000000
vt 0.900000 0.000000
vt 0.100000 0.000000
vt 0.100000 0.000000
vt 0.600000 0.000000
vt 0.500000 0.000000
vt 0.500000 0.000000
vt 0.600000 0.000000
vt 0.700000 0.000000
vt 0.700000 0.000000
vt 0.200000 0.000000
vt 0.200000 0.000000
vt 0.400000 0.000000
vt 0.300000 0.000000
vt 0.300000 0.000000
vt 0.400000 0.000000
vn -0.9941 0.0013 0.1085
vn 0.8590 -0.0014 0.5120
vn -0.9992 0.0012 0.0389
vn 0.9941 -0.0020 0.1081
vn 0.9983 -0.0016 -0.0585
vn -0.9993 0.0012 -0.0382
vn -0.9801 0.0019 -0.1984
vn -0.8372 0.0012 0.5469
vn 1.0000 -0.0015 0.0041
vn 0.9891 0.0012 0.1475
vn -0.7752 -0.0020 0.6317
vn 0.9986 0.0007 0.0531
vn -0.9891 -0.0045 0.1471
vn -0.9968 -0.0025 -0.0798
vn 0.9986 0.0007 -0.0521
vn 0.9637 0.0041 -0.2668
vn 0.7459 0.0014 0.6660
vn -1.0000 -0.0022 0.0056
vn 0.0003 -0.7588 0.6513
vn 0.0015 0.9879 0.1553
vn 0.0011 0.9865 -0.1639
vn 0.0056 -0.6509 -0.7592
vn -0.0002 -1.0000 0.0059
vn 0.0004 0.7283 0.6852
vn -0.0026 0.9601 -0.2796
vn 0.0022 0.9985 -0.0550
vn 0.0002 -0.9965 -0.0841
vn 0.0031 -0.9880 0.1546
vn 0.0022 0.9984 0.0560
vn -0.0000 -1.0000 0.0000
vn 0.9878 0.0015 -0.1557
vn -0.6687 -0.0056 -0.7436
vn -0.9934 0.0014 -0.1146
vn 0.7764 -0.0022 -0.6302
usemtl None
s off
f 11/1/1 1/2/1 34/3/1 44/4/1
f 9/5/2 10/6/2 43/7/2 42/8/2
f 1/2/3 2/9/3 35/10/3 34/3/3
f 6/11/4 7/12/4 40/13/4 39/14/4
f 8/15/5 9/5/5 42/8/5 41/16/5
f 2/9/6 3/17/6 36/18/6 35/10/6
f 4/19/7 5/20/7 38/21/7 37/22/7
f 10/6/8 11/1/8 44/4/8 43/7/8
f 7/12/9 8/15/9 41/16/9 40/13/9
f 12/23/10 22/24/10 33/25/10 23/26/10
f 21/27/11 20/28/11 31/29/11 32/30/11
f 13/31/12 12/23/12 23/26/12 24/32/12
f 18/33/13 17/34/13 28/35/13 29/36/13
f 20/28/14 19/37/14 30/38/14 31/29/14
f 14/39/15 13/31/15 24/32/15 25/40/15
f 16/41/16 15/42/16 26/43/16 27/44/16
f 22/24/17 21/27/17 32/30/17 33/25/17
f 19/37/18 18/33/18 29/36/18 30/38/18
f 10/6/19 9/5/19 20/28/19 21/27/19
f 1/2/20 11/1/20 22/24/20 12/23/20
f 4/19/21 3/17/21 14/39/21 15/42/21
f 6/11/22 5/20/22 16/41/22 17/34/22
f 8/15/23 7/12/23 18/33/23 19/37/23
f 11/1/24 10/6/24 21/27/24 22/24/24
f 5/20/25 4/19/25 15/42/25 16/41/25
f 3/17/26 2/9/26 13/31/26 14/39/26
f 9/5/27 8/15/27 19/37/27 20/28/27
f 7/12/28 6/11/28 17/34/28 18/33/28
f 2/9/29 1/2/29 12/23/29 13/31/29
f 33/25/30 32/30/30 31/29/30
f 15/42/31 14/39/31 25/40/31 26/43/31
f 17/34/32 16/41/32 27/44/32 28/35/32
f 3/17/33 4/19/33 37/22/33 36/18/33
f 5/20/34 6/11/34 39/14/34 38/21/34
