# Blender v2.93.1 OBJ File: 'tsx_bub_ckx.blend'
# www.blender.org
o bub_Polygon.001
v -0.719249 -0.941806 0.000000
v -0.724247 -0.847028 0.000000
v -0.621731 -0.800361 0.000000
v -0.627138 -0.710540 0.000000
v -0.065402 -0.801190 0.000000
v 0.235843 -0.703100 0.000000
v 0.502443 -0.279173 0.000000
v 0.673465 -0.201277 0.000000
v 0.685681 -0.124602 0.000000
v 0.900681 -0.155427 0.000000
v 0.872584 -0.364604 0.000000
v 0.888465 -0.350230 0.000000
v 0.912897 -0.228357 0.000000
v 0.905664 -0.458825 0.000000
v 0.930289 -0.438457 0.000000
v 0.957261 -0.175404 0.000000
v 0.981790 -0.214084 0.000000
v 0.979443 -0.096400 0.000000
v 0.920904 -0.077495 0.000000
v 0.973638 -0.012272 0.000000
v 0.860100 -0.090415 0.000000
v 0.556538 0.015527 0.000000
v 0.550737 0.190185 0.000000
v 0.803676 0.293582 0.000000
v 0.797875 0.161146 0.000000
v 0.833642 0.113542 0.000000
v 0.824449 0.246631 0.000000
v 0.895452 0.054608 0.000000
v 0.910215 0.123354 0.000000
v 0.851683 0.297645 0.000000
v 0.869377 0.376651 0.000000
v 0.824038 0.342783 0.000000
v 0.544154 0.251745 0.000000
v 0.362486 0.555036 0.000000
v 0.077746 0.681634 0.000000
v -0.143959 0.855142 0.000000
v -0.153108 0.713480 0.000000
v -0.367483 0.945624 0.000000
v -0.403019 0.887518 0.000000
v -0.583679 0.958412 0.000000
v -0.576703 0.878318 0.000000
v -0.702998 0.866291 0.000000
v -0.663646 0.757514 0.000000
v -0.808998 0.746952 0.000000
v -0.715407 0.578073 0.000000
v -0.400465 0.413591 0.000000
v -0.358181 -0.182600 0.000000
v -0.477880 -0.289911 0.000000
v -0.803490 -0.417520 0.000000
v -0.900174 -0.595702 0.000000
v -1.000556 -0.576927 0.000000
v -0.966564 -0.641220 0.000000
v -0.996320 -0.701022 0.000000
v -0.929572 -0.758380 0.000000
v -0.980290 -0.824233 0.000000
v -0.875378 -0.814348 0.000000
v -0.897511 -0.867007 0.000000
v -0.851724 -0.905985 0.000000
v -0.789323 -0.857498 0.000000
v -0.760394 -0.924084 0.000000
vt 0.000000 0.000000
vt 0.000000 0.000000
vt 0.000000 0.000000
vt 0.000000 0.000000
vt 0.000000 0.000000
vt 0.000000 0.000000
vt 0.000000 0.000000
vt 0.000000 0.000000
vt 0.000000 0.000000
vt 0.000000 0.000000
vt 0.000000 0.000000
vt 0.000000 0.000000
vt 0.000000 0.000000
vt 0.000000 0.000000
vt 0.000000 0.000000
vt 0.000000 0.000000
vt 0.000000 0.000000
vt 0.000000 0.000000
vt 0.000000 0.000000
vt 0.000000 0.000000
vt 0.000000 0.000000
vt 0.000000 0.000000
vt 0.000000 0.000000
vt 0.000000 0.000000
vt 0.000000 0.000000
vt 0.000000 0.000000
vt 0.000000 0.000000
vt 0.000000 0.000000
vt 0.000000 0.000000
vt 0.000000 0.000000
vt 0.000000 0.000000
vt 0.000000 0.000000
vt 0.000000 0.000000
vt 0.000000 0.000000
vt 0.000000 0.000000
vt 0.000000 0.000000
vt 0.000000 0.000000
vt 0.000000 0.000000
vt 0.000000 0.000000
vt 0.000000 0.000000
vt 0.000000 0.000000
vt 0.000000 0.000000
vt 0.000000 0.000000
vt 0.000000 0.000000
vt 0.000000 0.000000
vt 0.000000 0.000000
vt 0.000000 0.000000
vt 0.000000 0.000000
vt 0.000000 0.000000
vt 0.000000 0.000000
vt 0.000000 0.000000
vt 0.000000 0.000000
vt 0.000000 0.000000
vt 0.000000 0.000000
vt 0.000000 0.000000
vt 0.000000 0.000000
vt 0.000000 0.000000
vt 0.000000 0.000000
vt 0.000000 0.000000
vt 0.000000 0.000000
vn 0.0000 0.0000 -1.0000
s off
f 18/1/1 16/2/1 10/3/1
f 2/4/1 1/5/1 60/6/1
f 59/7/1 58/8/1 56/9/1
f 58/8/1 57/10/1 56/9/1
f 2/4/1 60/6/1 59/7/1
f 4/11/1 3/12/1 2/4/1
f 6/13/1 5/14/1 47/15/1
f 5/14/1 4/11/1 48/16/1
f 47/15/1 5/14/1 48/16/1
f 9/17/1 8/18/1 7/19/1
f 7/19/1 6/13/1 47/15/1
f 4/11/1 2/4/1 56/9/1
f 2/4/1 59/7/1 56/9/1
f 56/9/1 55/20/1 54/21/1
f 54/21/1 53/22/1 52/23/1
f 52/23/1 51/24/1 50/25/1
f 50/25/1 49/26/1 4/11/1
f 49/26/1 48/16/1 4/11/1
f 54/21/1 52/23/1 50/25/1
f 56/9/1 54/21/1 50/25/1
f 4/11/1 56/9/1 50/25/1
f 9/17/1 7/19/1 22/27/1
f 7/19/1 47/15/1 22/27/1
f 12/28/1 11/29/1 13/30/1
f 11/29/1 10/3/1 13/30/1
f 47/15/1 46/31/1 23/32/1
f 22/27/1 47/15/1 23/32/1
f 10/3/1 9/17/1 21/33/1
f 46/31/1 45/34/1 43/35/1
f 45/34/1 44/36/1 43/35/1
f 43/35/1 42/37/1 41/38/1
f 46/31/1 43/35/1 39/39/1
f 43/35/1 41/38/1 39/39/1
f 41/38/1 40/40/1 39/39/1
f 39/39/1 38/41/1 37/42/1
f 37/42/1 36/43/1 35/44/1
f 35/44/1 34/45/1 46/31/1
f 34/45/1 33/46/1 23/32/1
f 46/31/1 34/45/1 23/32/1
f 32/47/1 31/48/1 30/49/1
f 37/42/1 35/44/1 46/31/1
f 32/47/1 30/49/1 24/50/1
f 30/49/1 29/51/1 27/52/1
f 29/51/1 28/53/1 27/52/1
f 27/52/1 26/54/1 25/55/1
f 27/52/1 25/55/1 24/50/1
f 30/49/1 27/52/1 24/50/1
f 32/47/1 24/50/1 33/46/1
f 24/50/1 23/32/1 33/46/1
f 39/39/1 37/42/1 46/31/1
f 21/33/1 20/56/1 19/57/1
f 21/33/1 19/57/1 10/3/1
f 19/57/1 18/1/1 10/3/1
f 9/17/1 22/27/1 21/33/1
f 15/58/1 14/59/1 13/30/1
f 16/2/1 15/58/1 13/30/1
f 16/2/1 13/30/1 10/3/1
f 18/1/1 17/60/1 16/2/1
