# Blender v2.93.1 OBJ File: 'rail4d crosssection.blend'
# www.blender.org
mtllib rail4dcrosssection.mtl
o Cube
v 0.047799 0.064942 -0.046407
v 0.170176 0.011763 -0.168783
v 0.047799 0.064942 0.049251
v 0.170176 0.011763 0.171627
v -0.047858 0.064942 -0.046407
v -0.170234 0.011763 -0.168783
v -0.047858 0.064942 0.049251
v -0.170234 0.011763 0.171627
v 0.047799 0.289474 0.049251
v -0.047858 0.289474 0.049251
v 0.047799 0.289474 -0.046407
v -0.047858 0.289474 -0.046407
v 0.102356 0.312196 0.103807
v -0.102414 0.312196 0.103807
v 0.102356 0.312196 -0.100963
v -0.102414 0.312196 -0.100963
v 0.102356 0.405679 0.103807
v -0.102414 0.405679 0.103807
v 0.102356 0.405679 -0.100963
v -0.102414 0.405679 -0.100963
v -0.170234 -0.001318 -0.168783
v -0.170234 -0.001318 0.171627
v 0.170176 -0.001318 -0.168783
v 0.170176 -0.001318 0.171627
v 0.047799 0.406042 -0.046407
v -0.047858 0.406042 -0.046407
v 0.048022 0.312196 -0.100963
v 0.048022 0.405679 -0.100963
v -0.048170 0.312196 -0.100963
v -0.048170 0.405679 -0.100963
vt 0.625000 0.750000
vt 0.625000 0.500000
vt 0.625000 0.500000
vt 0.625000 0.750000
vt 0.375000 0.750000
vt 0.625000 1.000000
vt 0.375000 1.000000
vt 0.375000 0.000000
vt 0.625000 0.000000
vt 0.625000 0.250000
vt 0.375000 0.250000
vt 0.375000 0.500000
vt 0.375000 0.500000
vt 0.375000 0.250000
vt 0.625000 0.250000
vt 0.625000 0.000000
vt 0.625000 0.000000
vt 0.625000 0.250000
vt 0.625000 0.250000
vt 0.625000 0.500000
vt 0.625000 1.000000
vt 0.625000 0.750000
vt 0.625000 1.000000
vt 0.625000 0.500000
vt 0.625000 0.500000
vt 0.625000 0.500000
vt 0.625000 0.500000
vt 0.625000 0.750000
vt 0.625000 0.000000
vt 0.625000 0.250000
vt 0.625000 1.000000
vt 0.375000 1.000000
vt 0.375000 0.750000
vt 0.375000 0.000000
vt 0.625000 0.250000
vt 0.625000 0.250000
vn 1.0000 0.0000 0.0000
vn 0.0000 0.9171 0.3986
vn -0.3986 0.9171 0.0000
vn 0.0000 0.0000 -1.0000
vn 0.3986 0.9171 0.0000
vn 0.0000 0.9171 -0.3986
vn -0.3845 -0.9231 0.0000
vn 0.0000 0.0000 1.0000
vn -1.0000 0.0000 0.0000
vn 0.0000 -0.9231 0.3845
vn 0.3845 -0.9231 0.0000
vn -1.0000 0.0000 -0.0041
vn 1.0000 0.0000 -0.0057
vn 0.0000 -0.9231 -0.3845
vn 0.0000 1.0000 0.0024
vn 0.0053 1.0000 -0.0014
vn -0.0053 1.0000 -0.0014
usemtl Material
s off
f 3/1/1 1/2/1 11/3/1 9/4/1
f 4/5/2 3/1/2 7/6/2 8/7/2
f 8/8/3 7/9/3 5/10/3 6/11/3
f 6/11/4 2/12/4 23/13/4 21/14/4
f 2/12/5 1/2/5 3/1/5 4/5/5
f 6/11/6 5/10/6 1/2/6 2/12/6
f 12/15/7 10/16/7 14/17/7 16/18/7
f 1/2/4 5/10/4 26/19/4 25/20/4
f 7/6/8 3/1/8 9/4/8 10/21/8
f 5/10/9 7/9/9 10/16/9 12/15/9
f 10/21/10 9/4/10 13/22/10 14/23/10
f 9/4/11 11/3/11 15/24/11 13/22/11
f 19/25/4 15/24/4 27/26/4 28/27/4
f 13/22/1 15/24/1 19/25/1 17/28/1
f 16/18/9 14/17/9 18/29/9 20/30/9
f 14/23/8 13/22/8 17/28/8 18/31/8
f 4/5/8 8/7/8 22/32/8 24/33/8
f 8/8/9 6/11/9 21/14/9 22/34/9
f 2/12/1 4/5/1 24/33/1 23/13/1
f 16/18/4 20/30/4 30/35/4 29/36/4
f 27/26/12 11/3/12 25/20/12 28/27/12
f 26/19/13 12/15/13 29/36/13 30/35/13
f 11/3/14 27/26/14 15/24/14
f 16/18/14 29/36/14 12/15/14
f 17/28/15 25/20/15 26/19/15 18/31/15
f 17/28/16 19/25/16 28/27/16 25/20/16
f 20/30/17 18/31/17 26/19/17 30/35/17
